<?xml version="1.0" encoding="utf-8"?><svg xmlns="http://www.w3.org/2000/svg" xmlns:xlink="http://www.w3.org/1999/xlink"><symbol viewBox="0 0 512 512" id="check" xmlns="http://www.w3.org/2000/svg"><g fill="#1138f7"><circle cx="256" cy="256" r="236.17"/><path d="M256 512C114.853 512 0 397.167 0 256 0 114.853 114.853 0 256 0c141.167 0 256 114.853 256 256 0 141.167-114.833 256-256 256zm0-472.341C136.705 39.659 39.659 136.705 39.659 256S136.705 472.341 256 472.341 472.341 375.275 472.341 256c0-119.295-97.046-216.341-216.341-216.341z"/></g><path d="M225.066 350.191a19.807 19.807 0 01-14.139-5.929l-73.171-74.361c-7.674-7.813-7.575-20.345.238-28.039 7.813-7.654 20.365-7.575 28.039.238l58.458 59.409 120.941-133.195c7.396-8.11 19.929-8.685 27.999-1.348 8.11 7.357 8.705 19.889 1.348 28.019L239.74 343.706a19.833 19.833 0 01-14.277 6.504c-.139-.019-.258-.019-.397-.019z" fill="#fff"/></symbol><symbol viewBox="0 0 512 512" id="email" xmlns="http://www.w3.org/2000/svg"><path d="M464 64H48C21.49 64 0 85.49 0 112v288c0 26.51 21.49 48 48 48h416c26.51 0 48-21.49 48-48V112c0-26.51-21.49-48-48-48zm-11.52 32L256 236.32 59.52 96h392.96zM480 400c0 8.837-7.163 16-16 16H48c-8.837 0-16-7.163-16-16V115.68l214.72 153.28a16 16 0 0018.56 0L480 115.68V400z"/></symbol><symbol viewBox="0 0 512 512" id="location" xmlns="http://www.w3.org/2000/svg"><path d="M407.579 87.677C376.506 34.053 321.314 1.292 259.939.04c-2.62-.054-5.257-.054-7.878 0-61.374 1.252-116.566 34.013-147.64 87.637-31.762 54.812-32.631 120.652-2.325 176.123l126.963 232.387c.057.103.114.206.173.308 5.586 9.709 15.593 15.505 26.77 15.505 11.176 0 21.183-5.797 26.768-15.505.059-.102.116-.205.173-.308L409.906 263.8c30.304-55.471 29.435-121.311-2.327-176.123zM256 232c-39.701 0-72-32.299-72-72s32.299-72 72-72 72 32.299 72 72-32.298 72-72 72z" data-original="#000000" class="cactive-path" data-old_color="#000000" fill="#F0D839"/></symbol><symbol viewBox="0 0 128 128" id="map" xmlns="http://www.w3.org/2000/svg"><path d="M78.777 37.021A14.777 14.777 0 1064 51.8a14.795 14.795 0 0014.777-14.779zm-26.054 0A11.277 11.277 0 1164 48.3a11.29 11.29 0 01-11.277-11.279z"/><path d="M123.328 121.069l-14.266-37.4a1.751 1.751 0 00-1.635-1.126h-27c.165-.269.329-.53.494-.8 10.389-17.2 15.617-32.246 15.542-44.714a32.464 32.464 0 00-64.928-.011c-.075 12.479 5.153 27.527 15.542 44.725.165.273.329.534.494.8h-27a1.751 1.751 0 00-1.635 1.126l-14.264 37.4a1.748 1.748 0 001.635 2.374h115.386a1.748 1.748 0 001.635-2.374zM35.036 37.021a28.964 28.964 0 1157.928.01C93.114 61.889 69.874 92.548 64 99.9c-5.874-7.349-29.115-38-28.964-62.879zM62.667 103.8a1.75 1.75 0 002.666 0 185.716 185.716 0 0012.9-17.759h27.987l2.24 5.875-54.691 19.451-19.494-25.329h15.49A185.716 185.716 0 0062.667 103.8zm-8.959 11.3h.01l32.627-11.6L99 119.943H40.1zm-31.93-29.062h8.08L50.3 112.6l-20.643 7.342H8.847zm81.643 33.905l-13.609-17.682 19.9-7.077 9.443 24.759z"/></symbol><symbol viewBox="0 0 512 512" id="phone" xmlns="http://www.w3.org/2000/svg"><circle cx="256" cy="37.5" r="6"/><path d="M391 0H121c-20.678 0-37.5 16.822-37.5 37.5v437c0 20.678 16.822 37.5 37.5 37.5h270c20.678 0 37.5-16.822 37.5-37.5v-437C428.5 16.822 411.678 0 391 0zm22.5 474.5c0 12.407-10.094 22.5-22.5 22.5H121c-12.406 0-22.5-10.093-22.5-22.5v-437C98.5 25.093 108.594 15 121 15h270c12.406 0 22.5 10.093 22.5 22.5z"/><path d="M286 437h-60c-12.406 0-22.5 10.093-22.5 22.5S213.594 482 226 482h60c12.406 0 22.5-10.093 22.5-22.5S298.406 437 286 437zm0 30h-60c-4.136 0-7.5-3.364-7.5-7.5s3.364-7.5 7.5-7.5h60c4.136 0 7.5 3.364 7.5 7.5s-3.364 7.5-7.5 7.5zM391 30h-92.574c-1.989 0-3.896.79-5.304 2.197l-21.2 21.201C267.645 57.655 261.99 60 256 60c-5.993 0-11.637-2.341-15.893-6.593-.035-.036-13.158-13.139-21.229-21.21A7.501 7.501 0 00213.574 30H121a7.5 7.5 0 00-7.5 7.5V211c0 4.142 3.357 7.5 7.5 7.5s7.5-3.358 7.5-7.5V45h81.968s18.2 18.189 19.076 18.981l-.038.038C236.595 71.1 246.003 75 256 75c9.983 0 19.396-3.896 26.517-10.984L301.532 45H383.5v362h-255V241c0-4.142-3.357-7.5-7.5-7.5s-7.5 3.358-7.5 7.5v173.5a7.5 7.5 0 007.5 7.5h270a7.5 7.5 0 007.5-7.5v-377A7.5 7.5 0 00391 30z"/></symbol></svg>